<?xml version="1.0" standalone="no"?>
<!DOCTYPE svg PUBLIC "-//W3C//DTD SVG 20010904//EN"
 "http://www.w3.org/TR/2001/REC-SVG-20010904/DTD/svg10.dtd">
<svg version="1.0" xmlns="http://www.w3.org/2000/svg"
 width="478.000000pt" height="462.000000pt" viewBox="0 0 478.000000 462.000000"
 preserveAspectRatio="xMidYMid meet">
<metadata>
Created by potrace 1.15, written by Peter Selinger 2001-2017
</metadata>
<g transform="translate(0.000000,462.000000) scale(0.100000,-0.100000)"
fill="#000000" stroke="none">
<path d="M2246 4413 c-18 -38 -287 -640 -313 -701 l-14 -33 87 3 87 3 121 272
c67 150 125 272 130 273 5 1 63 -123 129 -274 l121 -276 83 0 c46 0 83 3 83 7
0 4 -75 177 -167 385 l-167 378 -81 0 -81 0 -18 -37z"/>
<path d="M3880 3780 l0 -330 -1360 0 -1360 0 0 310 0 310 -240 0 -240 0 2
-1012 3 -1013 237 -3 238 -2 0 430 0 430 459 0 458 0 6 -542 c7 -648 19 -792
83 -1006 128 -425 465 -724 899 -798 129 -22 378 -15 506 15 423 97 661 373
743 861 36 219 39 295 43 1493 l5 1187 -241 0 -241 0 0 -330z m-3 -1412 c-3
-322 -9 -565 -16 -613 -67 -467 -260 -641 -686 -622 -400 18 -568 201 -604
658 -6 73 -11 353 -11 621 l0 488 661 0 661 0 -5 -532z"/>
<path d="M2730 2685 l0 -55 416 0 416 0 -5 -452 c-4 -351 -8 -477 -21 -558
-17 -110 -48 -226 -72 -272 -21 -40 -1 -35 51 13 87 81 134 226 155 483 5 71
10 302 10 512 l0 384 -475 0 -475 0 0 -55z"/>
<path d="M3240 2330 c-8 -5 -57 -10 -108 -10 -105 0 -142 -12 -187 -59 -25
-26 -30 -41 -33 -95 -6 -96 24 -153 148 -281 100 -103 139 -164 140 -217 0
-72 -57 -112 -122 -85 -47 20 -68 67 -68 151 0 36 -2 66 -5 66 -19 0 -68 -35
-89 -63 -41 -54 -36 -100 17 -152 47 -47 94 -65 172 -65 70 0 120 16 161 52
47 42 64 77 64 138 0 75 -36 136 -154 261 -111 116 -136 156 -136 213 0 78 78
99 143 39 33 -31 77 -116 77 -150 0 -33 16 -28 29 8 14 40 14 172 0 222 -10
38 -22 44 -49 27z"/>
<path d="M3560 3785 l0 -195 60 0 60 0 0 195 0 195 -60 0 -60 0 0 -195z"/>
<path d="M2237 3895 c-9 -20 -17 -40 -17 -45 0 -6 51 -10 125 -10 69 0 125 2
125 5 0 3 -9 24 -20 45 l-20 40 -88 0 -88 0 -17 -35z"/>
<path d="M360 2850 l0 -1070 315 0 315 0 0 50 0 50 -255 0 -255 0 0 1020 0
1020 -60 0 -60 0 0 -1070z"/>
<path d="M1330 2685 l0 -55 215 0 215 0 0 -217 c1 -262 15 -652 30 -789 39
-355 162 -663 351 -878 248 -283 579 -441 996 -477 199 -17 358 1 528 61 195
69 357 180 457 312 89 117 88 129 -2 45 -204 -192 -419 -284 -715 -306 -625
-45 -1119 216 -1350 714 -139 298 -175 567 -175 1303 l0 342 -275 0 -275 0 0
-55z"/>
</g>
</svg>
